<svg width="46" height="46" viewBox="0 0 46 46" fill="none" xmlns="http://www.w3.org/2000/svg">
<path d="M22.7692 44.3822C10.8991 44.3822 1.30713 34.8429 1.30713 23.038C1.30713 17.3144 3.58523 11.9486 7.54192 7.89437C11.6185 3.84017 17.014 1.57458 22.7692 1.57458C34.6393 1.57458 44.2313 11.1139 44.2313 22.9188C44.2313 34.7236 34.6393 44.2629 22.7692 44.3822Z" fill="url(#paint0_linear)"/>
<mask id="mask0" mask-type="alpha" maskUnits="userSpaceOnUse" x="1" y="1" width="44" height="44">
<path d="M22.7692 44.3822C10.8991 44.3822 1.30713 34.8429 1.30713 23.038C1.30713 17.3144 3.58523 11.9486 7.54192 7.89437C11.6185 3.84017 17.014 1.57458 22.7692 1.57458C34.6393 1.57458 44.2313 11.1139 44.2313 22.9188C44.2313 34.7236 34.6393 44.2629 22.7692 44.3822Z" fill="url(#paint1_linear)"/>
</mask>
<g mask="url(#mask0)">
<path d="M46.2636 18.832L-0.377441 18.8979L-0.365871 27.1256L46.2752 27.0596L46.2636 18.832Z" fill="black"/>
<path d="M46.2636 35.4066L-0.377441 35.4725L-0.365871 43.7002L46.2752 43.6342L46.2636 35.4066Z" fill="black"/>
<path d="M46.2636 2.25788L-0.377441 2.32385L-0.365871 10.5515L46.2752 10.4855L46.2636 2.25788Z" fill="black"/>
</g>
<path d="M23.0596 2.51165C34.3963 2.51165 43.6076 11.7229 43.6076 23.0596C43.6076 34.3963 34.3963 43.6076 23.0596 43.6076C11.7229 43.6076 2.51165 34.3963 2.51165 23.0596C2.51165 11.7229 11.7229 2.51165 23.0596 2.51165ZM23.0596 0.8C17.045 0.8 11.5089 3.08634 7.2976 7.2976C3.08634 11.5089 0.8 17.045 0.8 23.0596C0.8 35.3334 10.7873 45.2 22.9404 45.2C28.955 45.2 34.4911 42.9137 38.7024 38.7024C42.9137 34.4911 45.2 28.955 45.2 22.9404C45.2 10.7873 35.3334 0.8 23.0596 0.8Z" fill="white" stroke="white" stroke-width="0.4"/>
<defs>
<linearGradient id="paint0_linear" x1="1.2901" y1="23.0025" x2="44.2411" y2="22.9416" gradientUnits="userSpaceOnUse">
<stop stop-color="#E8990C"/>
<stop offset="0.3903" stop-color="#F4B40D"/>
<stop offset="0.7418" stop-color="#FCC60D"/>
<stop offset="1" stop-color="#FFCC0D"/>
</linearGradient>
<linearGradient id="paint1_linear" x1="1.2901" y1="23.0025" x2="44.2411" y2="22.9416" gradientUnits="userSpaceOnUse">
<stop stop-color="#E8990C"/>
<stop offset="0.3903" stop-color="#F4B40D"/>
<stop offset="0.7418" stop-color="#FCC60D"/>
<stop offset="1" stop-color="#FFCC0D"/>
</linearGradient>
</defs>
</svg>
